<svg xmlns="http://www.w3.org/2000/svg" xmlns:xlink="http://www.w3.org/1999/xlink" width="25" height="25" viewBox="0 0 25 25">
  <defs>
    <clipPath id="clip-path">
      <path id="Path_249" data-name="Path 249" d="M24.344-25.06l-2.251,2.251a.586.586,0,0,1-.83,0l-5.42-5.42a.586.586,0,0,1,0-.83l2.251-2.251a2.349,2.349,0,0,1,3.316,0l2.935,2.935A2.34,2.34,0,0,1,24.344-25.06ZM13.909-27.126,1.086-14.3.051-8.37A1.173,1.173,0,0,0,1.409-7.012l5.933-1.04L20.164-20.875a.587.587,0,0,0,0-.83l-5.42-5.42A.592.592,0,0,0,13.909-27.126ZM6.091-15.4a.681.681,0,0,1,0-.967l7.52-7.52a.681.681,0,0,1,.967,0,.681.681,0,0,1,0,.967L7.058-15.4a.681.681,0,0,1-.967,0ZM4.329-11.295H6.672v1.773l-3.15.552L2-10.489l.552-3.15H4.329Z" transform="translate(-0.033 31.995)" fill="#4391c9" clip-rule="evenodd"/>
    </clipPath>
    <clipPath id="clip-path-2">
      <path id="Path_248" data-name="Path 248" d="M0-6.95H25.05V-32H0Z" transform="translate(0 32)" fill="#4391c9"/>
    </clipPath>
    <clipPath id="clip-path-3">
      <rect id="Rectangle_735" data-name="Rectangle 735" width="25.05" height="25.05" fill="#4391c9"/>
    </clipPath>
    <clipPath id="clip-path-4">
      <path id="Path_247" data-name="Path 247" d="M0-32H25.05V-6.95H0Z" transform="translate(0 32)" fill="#4391c9" clip-rule="evenodd"/>
    </clipPath>
  </defs>
  <g id="Group_345" data-name="Group 345" transform="translate(0 0)" clip-path="url(#clip-path)">
    <g id="Group_344" data-name="Group 344" transform="translate(-0.026 -0.004)" clip-path="url(#clip-path-2)">
      <g id="Group_343" data-name="Group 343" clip-path="url(#clip-path-3)">
        <g id="Group_342" data-name="Group 342" clip-path="url(#clip-path-4)">
          <g id="Group_341" data-name="Group 341" clip-path="url(#clip-path-2)">
            <path id="Path_245" data-name="Path 245" d="M-5-37H27.878V-4.122H-5Z" transform="translate(1.086 33.086)" fill="#4391c9"/>
          </g>
        </g>
      </g>
    </g>
  </g>
</svg>
