<svg xmlns="http://www.w3.org/2000/svg" xmlns:xlink="http://www.w3.org/1999/xlink" width="25" height="18.572" viewBox="0 0 25 18.572">
  <defs>
    <clipPath id="clip-path">
      <path id="Path_244" data-name="Path 244" d="M23.958-32.5H3.819a1.106,1.106,0,0,0-1.042,1.161v.387H1.042A1.106,1.106,0,0,0,0-29.792v13.155a2.581,2.581,0,0,0,2.431,2.708H22.917A2.212,2.212,0,0,0,25-16.25V-31.339A1.106,1.106,0,0,0,23.958-32.5ZM2.431-16.25a.369.369,0,0,1-.347-.387V-28.631h.694v11.994A.369.369,0,0,1,2.431-16.25Zm10.243-.774h-6.6a.553.553,0,0,1-.521-.58v-.387a.553.553,0,0,1,.521-.58h6.6a.553.553,0,0,1,.521.58v.387A.553.553,0,0,1,12.674-17.024Zm9.028,0H15.1a.553.553,0,0,1-.521-.58v-.387a.553.553,0,0,1,.521-.58h6.6a.553.553,0,0,1,.521.58v.387A.553.553,0,0,1,21.7-17.024Zm-9.028-4.643h-6.6a.553.553,0,0,1-.521-.58v-.387a.553.553,0,0,1,.521-.58h6.6a.553.553,0,0,1,.521.58v.387A.553.553,0,0,1,12.674-21.667Zm9.028,0H15.1a.553.553,0,0,1-.521-.58v-.387a.553.553,0,0,1,.521-.58h6.6a.553.553,0,0,1,.521.58v.387A.553.553,0,0,1,21.7-21.667Zm0-4.643H6.076a.553.553,0,0,1-.521-.58v-1.935a.553.553,0,0,1,.521-.58H21.7a.553.553,0,0,1,.521.58v1.935A.553.553,0,0,1,21.7-26.31Z" fill="#4391c9" clip-rule="evenodd"/>
    </clipPath>
    <clipPath id="clip-path-2">
      <path id="Path_243" data-name="Path 243" d="M0-11.143H25V-39H0Z" transform="translate(0 39)" fill="#4391c9"/>
    </clipPath>
    <clipPath id="clip-path-3">
      <rect id="Rectangle_734" data-name="Rectangle 734" width="25" height="27.857" fill="#4391c9"/>
    </clipPath>
    <clipPath id="clip-path-4">
      <path id="Path_242" data-name="Path 242" d="M0-39H25v27.857H0Z" transform="translate(0 39)" fill="#4391c9" clip-rule="evenodd"/>
    </clipPath>
    <clipPath id="clip-path-5">
      <path id="Path_241" data-name="Path 241" d="M0-13.714H25V-33H0Z" transform="translate(0 33)" fill="#4391c9"/>
    </clipPath>
  </defs>
  <g id="Group_340" data-name="Group 340" transform="translate(0 32.5)">
    <g id="Group_339" data-name="Group 339" clip-path="url(#clip-path)">
      <g id="Group_338" data-name="Group 338" transform="translate(0 -37.143)" clip-path="url(#clip-path-2)">
        <g id="Group_337" data-name="Group 337" transform="translate(0 0)" clip-path="url(#clip-path-3)">
          <g id="Group_336" data-name="Group 336" clip-path="url(#clip-path-4)">
            <g id="Group_335" data-name="Group 335" transform="translate(0 4.286)" clip-path="url(#clip-path-5)">
              <path id="Path_240" data-name="Path 240" d="M-5-44H27.143V-9H-5Z" transform="translate(1.429 36.143)" fill="#4391c9"/>
            </g>
          </g>
        </g>
      </g>
    </g>
  </g>
</svg>
