<svg enable-background="new 0 0 32 32" height="32" viewBox="0 0 32 32" width="32" xmlns="http://www.w3.org/2000/svg"><g fill="#263238"><path d="m16 31c-8.271 0-15-6.729-15-15s6.729-15 15-15 15 6.729 15 15-6.729 15-15 15zm0-29c-7.72 0-14 6.28-14 14s6.28 14 14 14 14-6.28 14-14-6.28-14-14-14z"/><path d="m23.64 20.713-4.762-1.652-.323-2.584c-.215.307-.523.546-.924.671l.293 2.345c.023.189.152.349.332.41l5.055 1.756c.9.314 1.689 1.427 1.689 2.381v-.007c0 .276.224.5.5.5.275 0 .499-.223.5-.498-.003-1.379-1.06-2.867-2.36-3.322z"/><path d="m6.5 24.532c-.276 0-.5-.224-.5-.5v.007c0-1.379 1.059-2.871 2.359-3.326l4.762-1.641.012-.28c.034-.274.289-.465.559-.434.273.034.468.284.434.559l-.051.589c-.023.189-.153.348-.333.41l-5.054 1.742c-.899.315-1.688 1.428-1.688 2.381v-.007c0 .277-.224.5-.5.5z"/><path d="m16 18.039c-2.779 0-4.192-1.844-4.201-6.469-.002-1.174.123-2.363 1.227-3.469.703-.705 1.703-1.062 2.974-1.062s2.271.357 2.975 1.063c1.104 1.105 1.229 2.295 1.227 3.469-.01 4.624-1.423 6.468-4.202 6.468zm0-10c-1.009 0-1.75.252-2.267.769-.632.633-.938 1.2-.935 2.761.008 4.018 1.055 5.471 3.201 5.471s3.193-1.453 3.201-5.471c.003-1.561-.303-2.128-.935-2.761-.515-.517-1.256-.769-2.265-.769z"/></g></svg>