<svg xmlns="http://www.w3.org/2000/svg" width="60" height="60" viewBox="0 0 60 60">
  <g id="Group_438" data-name="Group 438" transform="translate(-414 -592)">
    <g id="Ellipse_5" data-name="Ellipse 5" transform="translate(414 592)" fill="none" stroke="#fff" stroke-width="2">
      <circle cx="30" cy="30" r="30" stroke="none"/>
      <circle cx="30" cy="30" r="29" fill="none"/>
    </g>
    <g id="Symbol_5_1" data-name="Symbol 5 – 1" transform="translate(430.944 608.944)">
      <path id="Path_4" data-name="Path 4" d="M4.058,4.058A12.281,12.281,0,0,1,13.528,0,12.281,12.281,0,0,1,23,4.058a12.281,12.281,0,0,1,4.058,9.47A12.281,12.281,0,0,1,23,23a12.281,12.281,0,0,1-9.47,4.058A12.281,12.281,0,0,1,4.058,23C1.578,20.292,0,17.361,0,13.528A12.281,12.281,0,0,1,4.058,4.058ZM15.332,24.35q1.353,0,3.382-2.029a9.848,9.848,0,0,0,1.578-4.735,3.734,3.734,0,0,0-1.127-2.706,3.969,3.969,0,0,0-2.931-1.353H13.979a6.583,6.583,0,0,1-2.029-.451,2.047,2.047,0,0,1-.676-1.578,1.171,1.171,0,0,1,.451-.9,1.709,1.709,0,0,1,.9-.451,1.539,1.539,0,0,1,1.127.676c.451.225.676.451.9.451a1.356,1.356,0,0,0,.9-.225,1.356,1.356,0,0,0,.225-.9,3.588,3.588,0,0,0-1.127-2.255,9.326,9.326,0,0,0,1.127-4.284.485.485,0,0,0-.451-.451,6.97,6.97,0,0,0-1.8-.451,11.278,11.278,0,0,0-5.862,1.8A5.676,5.676,0,0,0,5.637,9.019,5.773,5.773,0,0,0,7.44,13.3a6.16,6.16,0,0,0,4.284,1.8h0v.9a2.9,2.9,0,0,0,.9,2.255,3.283,3.283,0,0,0,2.029,1.353v4.058c0,.225,0,.225.225.451S15.106,24.35,15.332,24.35Z" fill="#fff"/>
    </g>
  </g>
</svg>
