<?xml version="1.0" ?><!DOCTYPE svg  PUBLIC '-//W3C//DTD SVG 1.1//EN'  'http://www.w3.org/Graphics/SVG/1.1/DTD/svg11.dtd'><svg enable-background="new 0 0 128 128" height="128px" id="Layer_1" version="1.1" viewBox="0 0 128 128" width="128px" xml:space="preserve" xmlns="http://www.w3.org/2000/svg" xmlns:xlink="http://www.w3.org/1999/xlink"><path d="M121.7,37.7c0-0.1,0.1-0.1,0.1-0.2c0,0,0.1-0.1,0.1-0.1c0-0.1,0.1-0.1,0.1-0.2c0-0.1,0.1-0.1,0.1-0.2  c0-0.1,0-0.1,0.1-0.2c0-0.1,0-0.1,0-0.2c0-0.1,0-0.1,0-0.2c0-0.1,0-0.1,0-0.2c0,0,0,0,0-0.1l-0.6-10.6c0,0,0-0.1,0-0.1  c0-0.1,0-0.1,0-0.2c0-0.1,0-0.1-0.1-0.2c0-0.1,0-0.1-0.1-0.2c0-0.1-0.1-0.1-0.1-0.2c0-0.1-0.1-0.1-0.1-0.2c0-0.1-0.1-0.1-0.1-0.2  c0,0,0-0.1-0.1-0.1l-11-11.2c0,0-0.1-0.1-0.1-0.1c-0.1,0-0.1-0.1-0.2-0.1c-0.1,0-0.1-0.1-0.2-0.1c-0.1,0-0.1-0.1-0.2-0.1  c-0.1,0-0.1-0.1-0.2-0.1c-0.1,0-0.1,0-0.2-0.1c-0.1,0-0.1,0-0.2,0c0,0-0.1,0-0.1,0l-10.5-0.7c0,0,0,0-0.1,0c-0.1,0-0.1,0-0.2,0  c-0.1,0-0.1,0-0.2,0c-0.1,0-0.1,0-0.2,0c-0.1,0-0.1,0-0.2,0.1c-0.1,0-0.1,0.1-0.2,0.1c-0.1,0-0.1,0.1-0.2,0.1  c-0.1,0-0.1,0.1-0.1,0.1c-0.1,0-0.1,0.1-0.2,0.1c0,0,0,0,0,0L43.4,64.9c-0.8,0.8-0.8,2,0,2.8c0.8,0.8,2,0.8,2.8,0l44.1-43.4l8.9,0.6  l9.9,10.1l0.5,8.9L65.5,87.3c-0.8,0.8-0.8,2,0,2.8c0.8,0.8,2,0.8,2.8,0L121.7,37.7C121.7,37.7,121.7,37.7,121.7,37.7z M113.1,34  c0,0,0-0.1,0-0.1c0-0.1,0-0.1,0-0.2c0-0.1,0-0.1-0.1-0.2c0-0.1,0-0.1-0.1-0.2c0-0.1-0.1-0.1-0.1-0.2c0-0.1-0.1-0.1-0.1-0.2  c0-0.1-0.1-0.1-0.1-0.2c0,0,0-0.1-0.1-0.1l-11-11.2c0,0-0.1-0.1-0.1-0.1c-0.1,0-0.1-0.1-0.2-0.1c-0.1,0-0.1-0.1-0.2-0.1  c-0.1,0-0.1-0.1-0.2-0.1c-0.1,0-0.1-0.1-0.2-0.1c-0.1,0-0.1,0-0.2-0.1c-0.1,0-0.1,0-0.2,0c0,0-0.1,0-0.1,0l-6.1-0.4l4.7-4.7l8.9,0.6  l9.9,10.1l0.5,8.9l-4.8,4.7L113.1,34z" fill="#2C3E50"/><path d="M52.7,74.3l45.5-44.8c0.4-0.4,0.4-1,0-1.4c-0.4-0.4-1-0.4-1.4,0L51.3,72.9c-0.4,0.4-0.4,1,0,1.4  C51.7,74.7,52.3,74.7,52.7,74.3z" fill="#3B97D3"/><path d="M60.6,82.4l45.5-44.8c0.4-0.4,0.4-1,0-1.4c-0.4-0.4-1-0.4-1.4,0L59.2,81c-0.4,0.4-0.4,1,0,1.4  C59.6,82.8,60.3,82.8,60.6,82.4z" fill="#3B97D3"/><path d="M64.1,93c-0.2-1.1-1.3-1.8-2.4-1.5l-16.2,3.7l-7.5-7.6l4-16.1c0.3-1.1-0.4-2.2-1.5-2.4  c-1.1-0.3-2.2,0.4-2.4,1.5L31,99.6c0,0,0,0,0,0c0,0.2-0.1,0.3-0.1,0.5c0,0,0,0,0,0c0,0.1,0,0.2,0,0.4c0,0,0,0,0,0  c0,0.1,0.1,0.2,0.1,0.3c0,0,0,0.1,0.1,0.1c0.1,0.1,0.2,0,0.3,0.1c0,0,0-0.2,0-0.2h0c0,0,0,0.2,0,0.2c0,0,0,0.1,0,0.1  c0.1,0.1,0.2,0.3,0.4,0.3c0,0,0.1,0.1,0.2,0.1c0.1,0.1,0.2,0.1,0.3,0.2c0,0,0,0,0,0c0.1,0,0.3,0.1,0.4,0.1c0,0,0,0,0,0  c0.2,0,0.3,0,0.5,0c0,0,0,0,0,0l29.3-6.6C63.7,95.2,64.4,94.1,64.1,93z M40.9,96.2l-5.3,1.2l1.3-5.3L40.9,96.2z" fill="#2C3E50"/><path d="M108,54.4v52.9c0,3.3-3,5.6-6.3,5.6H25c-3.3,0-6-2.3-6-5.6v-76c0-3.3,2.7-6.4,6-6.4h55.8l4.1-4H25  c-5.5,0-10,4.9-10,10.4v76c0,5.5,4.5,9.6,10,9.6h76.6c5.5,0,10.3-4.1,10.3-9.6V50.5L108,54.4z" fill="#3B97D3"/></svg>
