<svg xmlns="http://www.w3.org/2000/svg" width="60" height="60" viewBox="0 0 60 60">
  <g id="Group_436" data-name="Group 436" transform="translate(-414 -592)">
    <g id="Ellipse_5" data-name="Ellipse 5" transform="translate(414 592)" fill="none" stroke="#fff" stroke-width="2">
      <circle cx="30" cy="30" r="30" stroke="none"/>
      <circle cx="30" cy="30" r="29" fill="none"/>
    </g>
    <g id="Symbol_1_1" data-name="Symbol 1 – 1" transform="translate(430 608.875)">
      <path id="Path_3" data-name="Path 3" d="M13.562,2.411a41.585,41.585,0,0,1,5.425.151,6.989,6.989,0,0,1,2.562.452,5.292,5.292,0,0,1,2.562,2.562,6.989,6.989,0,0,1,.452,2.562c0,1.356.151,1.808.151,5.425a41.585,41.585,0,0,1-.151,5.425,6.989,6.989,0,0,1-.452,2.562,5.292,5.292,0,0,1-2.562,2.562,6.989,6.989,0,0,1-2.562.452c-1.356,0-1.808.151-5.425.151a41.585,41.585,0,0,1-5.425-.151,6.989,6.989,0,0,1-2.562-.452,5.292,5.292,0,0,1-2.562-2.562,6.989,6.989,0,0,1-.452-2.562c0-1.356-.151-1.808-.151-5.425a41.585,41.585,0,0,1,.151-5.425,6.989,6.989,0,0,1,.452-2.562A5.412,5.412,0,0,1,4.069,4.069,2.548,2.548,0,0,1,5.576,3.014a6.989,6.989,0,0,1,2.562-.452,41.585,41.585,0,0,1,5.425-.151m0-2.411A44.525,44.525,0,0,0,7.987.151a9.3,9.3,0,0,0-3.315.6A5.9,5.9,0,0,0,2.26,2.26,5.9,5.9,0,0,0,.753,4.671a6.866,6.866,0,0,0-.6,3.315A44.525,44.525,0,0,0,0,13.562a44.525,44.525,0,0,0,.151,5.576,9.3,9.3,0,0,0,.6,3.315A5.9,5.9,0,0,0,2.26,24.864a5.9,5.9,0,0,0,2.411,1.507,9.3,9.3,0,0,0,3.315.6,44.525,44.525,0,0,0,5.576.151,44.525,44.525,0,0,0,5.576-.151,9.3,9.3,0,0,0,3.315-.6,6.322,6.322,0,0,0,3.918-3.918,9.3,9.3,0,0,0,.6-3.315c0-1.507.151-1.959.151-5.576a44.525,44.525,0,0,0-.151-5.576,9.3,9.3,0,0,0-.6-3.315A5.9,5.9,0,0,0,24.864,2.26,5.9,5.9,0,0,0,22.453.753a9.3,9.3,0,0,0-3.315-.6A44.525,44.525,0,0,0,13.562,0m0,6.63A6.82,6.82,0,0,0,6.63,13.562,6.932,6.932,0,1,0,13.562,6.63m0,11.453a4.44,4.44,0,0,1-4.521-4.521,4.44,4.44,0,0,1,4.521-4.521,4.44,4.44,0,0,1,4.521,4.521,4.44,4.44,0,0,1-4.521,4.521M20.8,4.671a1.658,1.658,0,1,0,1.658,1.658A1.672,1.672,0,0,0,20.8,4.671" fill="#fff" fill-rule="evenodd"/>
    </g>
  </g>
</svg>
