<svg xmlns="http://www.w3.org/2000/svg" xmlns:xlink="http://www.w3.org/1999/xlink" width="60.56" height="42.581" viewBox="0 0 60.56 42.581">
  <defs>
    <linearGradient id="linear-gradient" x1="0.5" x2="0.5" y2="1" gradientUnits="objectBoundingBox">
      <stop offset="0" stop-color="#e52d27"/>
      <stop offset="1" stop-color="#bf171d"/>
    </linearGradient>
  </defs>
  <g id="yt-logo" transform="translate(0)">
    <g id="Group_400" data-name="Group 400">
      <path id="Path_7" data-name="Path 7" d="M101.6,68.309l16.37-8.469L101.6,51.3V68.309Z" transform="translate(-77.565 -39.164)" fill="#fff"/>
      <path id="Path_8" data-name="Path 8" d="M101.6,51.3l14.359,9.581,2.011-1.041L101.6,51.3Z" transform="translate(-77.565 -39.164)" fill="#420000" opacity="0.12"/>
      <path id="Path_9" data-name="Path 9" d="M59.922,9.179S59.33,5.015,57.51,3.17A8.61,8.61,0,0,0,51.432.615C42.99,0,30.292,0,30.292,0h-.024S17.57,0,9.08.615A8.68,8.68,0,0,0,3,3.17C1.206,5.015.615,9.179.615,9.179A90.821,90.821,0,0,0,0,19v4.589a90.1,90.1,0,0,0,.615,9.794s.591,4.164,2.412,6.009C5.321,41.8,8.347,41.73,9.7,41.966c4.848.473,20.573.615,20.573.615s12.722-.024,21.188-.639a8.68,8.68,0,0,0,6.077-2.555c1.821-1.845,2.412-6.009,2.412-6.009a90.1,90.1,0,0,0,.615-9.794V19a94.509,94.509,0,0,0-.638-9.817Zm-35.9,19.966V12.136l16.364,8.54L24.025,29.145Z" fill="url(#linear-gradient)"/>
    </g>
  </g>
</svg>
