<svg xmlns="http://www.w3.org/2000/svg" xmlns:xlink="http://www.w3.org/1999/xlink" width="25" height="24.367" viewBox="0 0 25 24.367">
  <defs>
    <clipPath id="clip-path">
      <path id="Path_254" data-name="Path 254" d="M14.436-7.841,13.2-6.6a1.334,1.334,0,0,1-1.892,0L.459-17.443a1.334,1.334,0,0,1,0-1.892L11.306-30.182a1.334,1.334,0,0,1,1.892,0l1.239,1.239a1.341,1.341,0,0,1-.022,1.914L7.69-20.624H23.726a1.336,1.336,0,0,1,1.339,1.339V-17.5a1.336,1.336,0,0,1-1.339,1.339H7.69l6.724,6.406A1.331,1.331,0,0,1,14.436-7.841Z" transform="translate(-0.066 30.575)" fill="#4391c9" clip-rule="evenodd"/>
    </clipPath>
    <clipPath id="clip-path-2">
      <path id="Path_253" data-name="Path 253" d="M0-5.947H25.053V-31H0Z" transform="translate(0 31)" fill="#4391c9"/>
    </clipPath>
    <clipPath id="clip-path-3">
      <rect id="Rectangle_737" data-name="Rectangle 737" width="25.053" height="25.053" fill="#4391c9"/>
    </clipPath>
    <clipPath id="clip-path-4">
      <path id="Path_252" data-name="Path 252" d="M0-31H25.053V-5.947H0Z" transform="translate(0 31)" fill="#4391c9" clip-rule="evenodd"/>
    </clipPath>
  </defs>
  <g id="Group_352" data-name="Group 352" transform="translate(-0.066 30.575)">
    <g id="Group_351" data-name="Group 351" transform="translate(0.066 -30.575)" clip-path="url(#clip-path)">
      <g id="Group_350" data-name="Group 350" transform="translate(-0.053 -0.343)" clip-path="url(#clip-path-2)">
        <g id="Group_349" data-name="Group 349" clip-path="url(#clip-path-3)">
          <g id="Group_348" data-name="Group 348" clip-path="url(#clip-path-4)">
            <g id="Group_347" data-name="Group 347" clip-path="url(#clip-path-2)">
              <path id="Path_250" data-name="Path 250" d="M-5-36H28.135V-2.865H-5Z" transform="translate(0.959 31.959)" fill="#4391c9"/>
            </g>
          </g>
        </g>
      </g>
    </g>
  </g>
</svg>
